<svg id="Capa_1" enable-background="new 0 0 512 512" height="512" viewBox="0 0 512 512" 
width="512" xmlns="http://www.w3.org/2000/svg"><g>

<style>
path {
    fill: #FFFFFF;
}

@media (prefers-color-scheme: dark) {
    fill: #000000;
    opacity: 0.5;
}
</style> 

<path d="m301 8.883v81.117h79.353z"/><circle cx="195.5" cy="106.05" r="15"/>
<path d="m211.95 450.95h-90.975c-8.284 0-15-6.716-15-15s6.716-15 15-15h90.975v-29.95h-90.975c-8.284 0-15-6.716-15-15s6.716-15 15-15h90.975v-29h-90.975c-8.284 0-15-6.716-15-15s6.716-15 15-15h93.555c6.192-17.459 22.865-30 42.42-30h14.281c2.367-33.451 30.319-59.95 64.363-59.95h55.406v-92.05h-105c-8.284 0-15-6.716-15-15v-105h-256c-8.284 0-15 6.716-15 15v482c0 8.284 6.716 15 15 15h211.991c-19.843-26.373-13.995-51.998-15.041-61.05zm-16.45-389.9c24.813 0 45 20.187 45 45s-20.187 45-45 45-45-20.187-45-45 20.187-45 45-45zm0 90.475c41.355 0 75 33.645 75 75 0 8.284-6.716 15-15 15h-120c-8.284 0-15-6.716-15-15 0-41.355 33.645-75 75-75zm-120.155 299.375c-8.257 0-14.95-6.693-14.95-14.95s6.693-14.95 14.95-14.95 14.95 6.693 14.95 14.95-6.694 14.95-14.95 14.95zm0-59.95c-8.257 0-14.95-6.693-14.95-14.95s6.693-14.95 14.95-14.95 14.95 6.693 14.95 14.95-6.694 14.95-14.95 14.95zm0-60c-8.257 0-14.95-6.693-14.95-14.95s6.693-14.95 14.95-14.95 14.95 6.693 14.95 14.95-6.694 14.95-14.95 14.95z"/><path d="m153.07 211.525h84.859c-14.141-39.884-70.705-39.919-84.859 0z"/><path d="m391.75 421.95c0 8.284-6.716 15-15 15s-15-6.716-15-15v-1.796l-119.8-14.975v61.821c0 24.813 20.187 45 45 45h180.05c24.813 0 45-20.187 45-45v-61.816l-120.25 15.044z"/><path d="m497 302h-46.003c.106-1.529.022 1.207.053-24.95 0-19.299-15.701-35-35-35h-80.456c-19.048 0-34.544 15.497-34.544 34.545.031 26.565-.055 23.856.053 25.405h-44.153c-8.284 0-15 6.716-15 15v57.946l119.943 14.992c.963-7.355 7.24-13.038 14.857-13.038 7.643 0 13.937 5.72 14.868 13.11l120.382-15.06v-57.95c0-8.284-6.716-15-15-15zm-166.003 0c.108-1.55.022 1.16.053-25.405 0-2.506 2.039-4.545 4.544-4.545h80.456c2.757 0 5 2.243 5 5 .031 26.105-.054 23.41.053 24.95z"/></g></svg>